<?xml version="1.0" standalone="no"?>
<!DOCTYPE svg PUBLIC "-//W3C//DTD SVG 20010904//EN"
 "http://www.w3.org/TR/2001/REC-SVG-20010904/DTD/svg10.dtd">
<svg version="1.0" xmlns="http://www.w3.org/2000/svg"
 width="940.000000pt" height="940.000000pt" viewBox="0 0 940.000000 940.000000"
 preserveAspectRatio="xMidYMid meet">
<metadata>
Created by potrace 1.14, written by Peter Selinger 2001-2017
</metadata>
<g transform="translate(0.000000,940.000000) scale(0.100000,-0.100000)"
fill="#000000" stroke="none">
<path d="M1028 9384 c-2 -1 -17 -5 -33 -8 -17 -2 -30 -5 -30 -6 0 -1 -7 -3
-16 -5 -29 -5 -71 -49 -94 -98 -36 -75 -18 -163 43 -219 29 -27 255 -158 272
-158 5 0 10 -4 10 -10 0 -5 6 -10 14 -10 7 0 19 -7 26 -15 10 -12 10 -15 0
-15 -8 0 -11 -3 -7 -6 3 -3 -7 -27 -23 -52 -16 -26 -43 -74 -61 -107 -17 -33
-35 -62 -40 -65 -4 -3 -12 -17 -18 -30 -6 -14 -22 -43 -36 -65 -14 -22 -28
-47 -32 -55 -3 -8 -17 -28 -29 -45 -12 -16 -23 -34 -23 -38 0 -4 -16 -34 -35
-66 -20 -32 -36 -63 -36 -68 0 -6 -9 -18 -20 -28 -11 -10 -20 -26 -20 -36 0
-9 -5 -19 -10 -21 -6 -2 -13 -30 -15 -63 -5 -50 -2 -68 18 -105 48 -92 161
-133 251 -90 67 31 71 36 196 255 35 61 70 118 78 128 8 9 12 17 9 17 -4 0 5
16 18 36 13 19 27 44 30 55 4 10 11 19 16 19 5 0 9 5 9 10 0 13 119 218 130
225 4 3 44 -16 89 -41 l81 -46 -32 -56 c-31 -56 -61 -109 -85 -147 -7 -11 -43
-74 -80 -140 -65 -116 -67 -122 -68 -190 0 -76 22 -134 73 -188 124 -133 353
-96 438 71 10 20 22 39 27 40 4 2 7 8 7 14 0 5 8 22 19 36 10 15 29 47 43 72
14 25 35 61 47 80 11 19 24 42 28 50 4 8 17 32 31 52 l24 37 75 -45 c41 -24
79 -44 85 -44 6 0 6 -6 -2 -15 -7 -8 -9 -15 -4 -15 5 0 5 -4 -1 -8 -10 -7 -16
-17 -62 -101 -14 -25 -31 -53 -39 -61 -7 -8 -12 -17 -11 -20 0 -3 -31 -59 -70
-125 -39 -66 -81 -138 -93 -160 -12 -22 -46 -81 -76 -131 -67 -114 -77 -139
-75 -192 5 -169 215 -256 341 -140 23 21 42 49 90 133 33 59 125 217 153 263
15 26 33 58 40 72 6 14 14 27 18 30 3 3 19 30 35 60 16 30 37 63 47 74 9 11
17 28 17 38 0 10 4 18 8 18 5 0 16 16 25 35 l17 36 48 -27 c26 -15 52 -31 58
-36 6 -4 37 -22 70 -39 32 -17 66 -38 75 -45 8 -8 19 -14 22 -14 4 0 45 -22
91 -48 l84 -49 -33 -77 c-19 -42 -34 -80 -34 -84 -1 -4 -10 -34 -21 -67 -30
-91 -50 -183 -66 -305 -14 -105 -7 -371 12 -462 2 -13 7 -34 9 -48 8 -48 26
-115 51 -194 14 -44 21 -83 17 -87 -17 -16 -223 -128 -223 -121 0 7 -52 40
-68 43 -4 1 -19 10 -34 20 -14 10 -31 19 -37 19 -6 0 -11 5 -11 10 0 6 -5 10
-10 10 -6 0 -40 18 -76 40 -36 22 -67 40 -69 40 -4 0 -263 148 -295 168 -14 9
-27 17 -30 17 -5 0 -48 26 -227 131 -40 24 -73 40 -73 36 0 -4 -4 -2 -8 4 -7
12 -147 87 -172 92 -63 14 -105 19 -156 16 -33 -1 -59 -3 -59 -4 0 -1 -7 -3
-15 -5 -8 -1 -22 -4 -29 -6 -23 -6 -125 -59 -246 -129 -60 -34 -129 -73 -152
-86 -82 -47 -268 -154 -283 -164 -8 -5 -40 -23 -70 -40 -97 -53 -139 -77 -152
-87 -7 -6 -49 -29 -93 -53 -140 -75 -204 -134 -255 -236 -16 -34 -33 -88 -38
-120 -6 -46 -7 -1199 -1 -1264 3 -32 32 -107 59 -156 50 -86 101 -124 387
-287 46 -26 87 -47 93 -47 5 0 10 -4 10 -9 0 -5 8 -11 18 -15 9 -3 31 -13 47
-23 106 -63 162 -95 290 -167 50 -27 92 -54 93 -58 2 -4 8 -8 14 -8 6 0 36
-15 67 -34 188 -113 242 -130 386 -125 62 3 146 36 253 101 34 21 64 38 66 38
2 0 65 36 141 80 76 44 139 80 142 80 2 0 29 16 59 35 30 19 56 35 58 35 4 0
166 91 196 110 21 13 125 72 185 105 99 55 134 83 189 155 40 51 69 117 83
187 3 15 5 290 6 611 0 485 3 584 14 594 8 6 60 37 116 69 l102 58 18 -22 c11
-12 33 -40 50 -62 258 -324 652 -553 1052 -610 155 -23 409 -23 511 -1 12 2
37 7 55 10 259 43 553 182 764 360 72 60 205 195 205 207 0 4 6 12 14 16 7 4
30 32 50 61 21 28 41 50 44 48 173 -97 242 -140 243 -149 0 -7 2 -273 3 -592
1 -319 6 -598 11 -620 29 -143 119 -240 323 -351 29 -16 61 -33 70 -39 138
-81 253 -145 261 -145 5 0 11 -3 13 -8 3 -6 398 -236 493 -286 22 -12 42 -24
45 -27 3 -4 33 -16 67 -27 47 -16 82 -20 145 -18 74 3 133 10 133 15 0 2 7 4
15 6 8 1 40 17 70 34 30 17 66 36 80 43 14 7 27 15 30 18 7 7 79 48 120 68 19
9 37 20 40 23 3 3 32 20 65 39 33 18 93 53 132 77 40 23 75 43 78 43 2 0 34
18 70 40 36 22 70 40 75 40 6 0 10 5 10 10 0 6 4 10 10 10 5 0 48 23 96 50 48
28 91 50 95 50 5 0 9 4 9 9 0 5 8 11 18 14 63 20 160 103 207 176 27 44 65
156 64 195 0 133 0 204 0 216 1 8 1 80 1 160 -1 80 -1 152 0 160 0 8 0 116 -1
240 0 124 0 232 1 240 3 216 0 235 -47 341 -43 99 -112 151 -453 346 -168 96
-325 186 -350 201 -25 15 -47 27 -50 27 -3 0 -16 8 -30 17 -14 9 -88 52 -165
96 -122 69 -164 90 -197 98 -5 1 -9 3 -10 4 -18 16 -193 16 -244 0 -34 -11
-118 -54 -243 -125 -20 -11 -99 -56 -176 -100 -77 -44 -142 -82 -145 -85 -3
-3 -18 -12 -35 -20 -16 -8 -58 -32 -92 -52 -35 -21 -67 -38 -73 -38 -5 0 -10
-4 -10 -10 0 -5 -5 -10 -11 -10 -6 0 -60 -29 -120 -65 -61 -36 -113 -65 -115
-65 -2 0 -23 -12 -47 -27 -23 -15 -45 -26 -49 -25 -5 1 -8 -2 -8 -7 0 -8 -111
54 -227 125 l-21 13 18 49 c32 84 66 226 77 322 8 74 12 373 5 385 -3 5 -7 25
-8 45 -1 19 -3 37 -4 40 -1 3 -2 9 -1 13 1 4 -10 51 -24 105 -14 53 -28 108
-31 121 -5 25 -32 93 -64 166 -14 30 -16 43 -7 51 20 20 437 254 451 254 8 0
17 -11 20 -25 4 -14 11 -25 16 -25 6 0 10 -5 10 -10 0 -6 47 -91 104 -188 57
-97 112 -193 123 -212 147 -259 171 -293 229 -320 134 -65 285 25 290 175 2
59 0 63 -149 320 -61 105 -115 199 -121 210 -7 11 -24 39 -39 62 -15 24 -27
47 -27 52 0 5 -6 16 -13 23 -6 8 -20 29 -31 48 -10 19 -27 50 -37 68 -23 39
-23 42 -5 42 7 0 19 7 26 15 7 8 16 13 20 10 5 -3 10 -2 12 3 1 4 24 20 51 35
44 26 48 27 54 10 3 -10 12 -25 18 -33 7 -8 24 -35 37 -60 14 -25 49 -85 78
-135 29 -49 62 -108 74 -130 29 -54 94 -118 136 -134 19 -7 42 -16 50 -20 8
-4 41 -7 74 -5 144 7 255 117 258 256 2 77 -11 108 -144 336 -65 113 -115 209
-111 213 23 22 156 89 163 82 9 -9 113 -186 211 -360 12 -21 30 -50 40 -65 11
-14 19 -29 19 -32 0 -3 25 -46 55 -96 30 -50 55 -94 55 -99 0 -18 68 -79 105
-93 44 -17 116 -17 155 -1 104 44 146 183 86 283 -15 25 -29 53 -33 63 -3 9
-9 17 -14 17 -5 0 -9 4 -9 9 0 8 -34 68 -87 156 -7 11 -15 27 -19 35 -4 8 -27
47 -50 86 -24 39 -44 74 -44 79 0 5 -6 16 -14 24 -7 9 -25 36 -39 61 -13 25
-37 66 -51 92 l-27 46 23 16 c12 9 28 16 35 16 7 0 13 5 13 10 0 6 7 10 15 10
8 0 15 5 15 10 0 6 5 10 11 10 18 0 203 110 224 134 52 57 69 143 42 207 -16
38 -74 99 -94 99 -7 0 -13 4 -13 8 0 9 -6 11 -65 12 -64 1 -83 -6 -205 -79
-47 -28 -96 -56 -110 -63 -14 -7 -52 -29 -85 -49 -33 -19 -64 -38 -70 -40 -10
-4 -202 -114 -283 -162 -26 -15 -56 -32 -67 -37 -11 -6 -38 -22 -60 -35 -22
-14 -47 -28 -55 -32 -8 -4 -31 -16 -50 -28 -19 -12 -55 -33 -80 -47 -164 -93
-266 -151 -344 -196 -49 -29 -90 -52 -91 -52 -3 0 -93 -52 -155 -90 -78 -47
-240 -137 -257 -143 -13 -5 -23 -13 -23 -18 0 -5 -4 -9 -9 -9 -5 0 -105 -55
-223 -123 l-214 -122 -99 100 c-55 55 -114 111 -130 125 -86 71 -275 197 -275
184 0 -4 -8 0 -17 8 -35 29 -229 109 -325 134 -5 1 -9 2 -10 4 -2 1 -12 3 -23
5 -32 5 -79 15 -97 21 -87 26 -413 38 -538 19 -119 -17 -134 -20 -245 -51
-292 -82 -541 -234 -763 -465 l-74 -77 -116 68 c-64 38 -139 80 -166 95 -26
14 -160 91 -298 171 -137 79 -252 144 -255 144 -3 0 -19 10 -36 22 -18 13 -34
23 -37 23 -6 1 -92 49 -142 81 -21 13 -39 24 -41 24 -7 0 -180 101 -208 121
-14 10 -28 16 -31 13 -3 -2 -11 2 -18 11 -7 8 -16 15 -21 15 -5 0 -38 18 -74
40 -36 22 -67 40 -69 40 -2 0 -34 18 -70 40 -36 22 -70 40 -76 40 -5 0 -10 5
-10 10 0 6 -5 10 -10 10 -9 0 -235 127 -300 168 -14 9 -27 17 -30 17 -3 0 -39
20 -80 44 -41 24 -101 59 -133 78 -52 29 -130 56 -139 47z m3307 -1891 l0
-298 360 0 c281 0 360 3 361 13 1 6 2 15 4 20 1 4 1 132 1 285 l0 277 147 0
147 0 0 -291 c0 -188 3 -293 10 -297 5 -4 46 -7 90 -7 l80 0 3 -86 3 -85 -86
1 c-51 1 -89 -3 -93 -9 -3 -6 -7 -90 -8 -186 -2 -196 -13 -260 -67 -362 -29
-57 -146 -188 -167 -188 -4 0 -15 -6 -22 -12 -11 -12 -85 -50 -98 -52 -3 -1
-9 -4 -15 -7 -5 -4 -44 -14 -85 -24 -116 -28 -347 -25 -427 6 -15 6 -37 13
-48 15 -26 5 -87 34 -105 50 -8 7 -19 13 -25 13 -22 1 -131 109 -167 165 -67
103 -80 164 -84 376 -1 102 -3 192 -3 200 -1 12 -16 15 -83 14 -119 -2 -113
-7 -113 86 0 44 2 81 5 81 3 1 47 2 99 3 l94 1 0 298 0 297 146 0 146 0 0
-297z m-2554 -1013 c53 -32 121 -71 151 -87 29 -16 130 -74 223 -128 94 -54
188 -108 210 -121 22 -12 101 -57 176 -100 l136 -79 2 -75 c1 -41 5 -78 7 -82
3 -4 1 -8 -5 -8 -6 0 -8 -6 -5 -14 9 -23 10 -466 1 -466 -5 0 -5 -5 -2 -10 5
-9 9 -464 4 -480 -1 -3 -1 -9 0 -14 4 -22 -12 -44 -47 -63 -85 -46 -588 -336
-599 -345 -7 -6 -13 -7 -13 -2 0 5 -4 4 -8 -2 -10 -15 -343 -204 -359 -204
-15 0 -78 32 -168 85 -33 20 -68 38 -77 42 -10 3 -18 9 -18 14 0 5 -4 9 -9 9
-5 0 -80 41 -167 91 -255 147 -278 160 -296 166 -10 3 -18 9 -18 14 0 5 -4 9
-9 9 -4 0 -48 23 -97 51 -49 29 -105 61 -124 71 -19 11 -39 27 -44 35 -11 20
-14 113 -3 113 5 0 5 5 1 11 -9 16 -11 109 -1 109 5 0 5 5 1 11 -9 16 -11 109
-1 109 5 0 5 5 1 11 -9 16 -11 109 -1 109 5 0 5 5 1 11 -9 16 -11 109 -1 109
5 0 5 5 1 11 -9 16 -11 109 -1 109 5 0 5 5 1 11 -8 14 -7 436 1 449 8 12 263
161 332 194 13 6 23 14 23 19 0 4 4 7 10 7 5 0 39 18 75 40 36 22 67 40 69 40
2 0 75 41 162 92 88 50 200 115 249 144 65 37 97 50 114 46 14 -3 68 -31 122
-62z m6068 10 c57 -33 106 -60 107 -60 2 0 33 -18 69 -40 36 -22 67 -40 69
-40 2 0 45 -25 95 -55 51 -30 93 -55 96 -55 2 0 38 -20 79 -45 42 -25 81 -45
86 -45 6 0 10 -4 10 -10 0 -5 4 -10 9 -10 5 0 72 -36 150 -81 99 -57 143 -87
146 -102 3 -12 4 -278 3 -592 l-3 -569 -40 -27 c-22 -15 -60 -38 -83 -51 -24
-13 -51 -28 -60 -33 -10 -6 -48 -28 -87 -50 -38 -22 -77 -44 -87 -50 -24 -14
-135 -78 -191 -109 -26 -15 -96 -55 -155 -89 -59 -34 -124 -71 -145 -82 -20
-11 -37 -23 -37 -27 0 -5 -9 -8 -19 -8 -11 0 -21 -3 -23 -7 -5 -13 -84 -53
-103 -53 -9 0 -47 17 -83 39 -76 44 -104 60 -222 127 -47 26 -87 51 -90 54 -3
3 -18 12 -35 20 -16 8 -58 32 -93 52 -34 21 -67 38 -72 38 -6 0 -10 4 -10 8 0
4 -12 13 -27 19 -16 7 -50 25 -78 42 -27 17 -57 34 -65 38 -8 4 -48 26 -88 50
-41 24 -78 43 -83 43 -5 0 -9 5 -9 10 0 6 -6 10 -12 10 -7 0 -24 9 -38 19
l-24 19 -1 577 c0 450 3 582 13 596 7 10 47 37 90 60 42 24 79 46 80 51 2 4 9
8 16 8 6 0 28 11 49 25 20 14 37 22 37 18 0 -4 4 -3 8 3 8 12 220 134 233 134
5 0 9 5 9 12 0 6 3 9 6 5 4 -3 26 7 50 23 23 17 45 30 47 30 3 0 40 20 81 45
42 25 81 45 86 45 6 0 10 5 10 10 0 6 4 10 9 10 6 0 36 15 68 34 73 42 136 76
143 76 3 0 52 -27 109 -60z"/>
<path d="M4337 7015 c-6 -20 -1 -291 7 -333 18 -100 79 -173 185 -224 58 -28
75 -32 155 -32 109 0 145 7 208 41 44 24 129 103 111 103 -4 0 -3 4 2 8 20 15
52 104 54 152 1 35 2 218 2 255 l-1 40 -360 0 c-231 0 -361 -4 -363 -10z"/>
<path d="M1365 5816 c-27 -14 -72 -38 -100 -55 -27 -16 -72 -42 -100 -57 -27
-14 -62 -35 -77 -45 -14 -11 -29 -19 -33 -19 -3 0 -30 -16 -60 -35 -89 -56
-91 -66 -90 -360 1 -213 4 -255 18 -282 15 -28 53 -63 82 -74 6 -2 41 -22 79
-44 37 -22 85 -49 105 -61 20 -11 54 -31 76 -44 162 -94 173 -95 309 -19 182
101 211 117 221 126 6 4 30 19 55 32 25 13 55 33 68 44 48 44 51 61 51 330 0
315 4 306 -174 403 -11 6 -74 41 -140 79 -204 117 -212 119 -290 81z m123
-436 c27 -16 52 -30 56 -30 21 0 31 -32 32 -101 l0 -76 -70 -41 c-64 -38 -72
-40 -91 -27 -11 8 -33 21 -50 29 -61 28 -65 36 -68 112 -2 68 10 104 34 104 5
0 30 14 56 30 26 17 48 30 50 30 1 0 25 -13 51 -30z"/>
<path d="M7853 5803 c-38 -20 -84 -46 -103 -58 -19 -12 -62 -37 -95 -55 -33
-18 -73 -41 -90 -52 -16 -10 -39 -22 -50 -27 -32 -14 -74 -58 -86 -88 -14 -37
-14 -508 0 -545 14 -38 44 -62 146 -121 50 -29 99 -57 110 -64 11 -7 27 -15
35 -20 8 -4 38 -20 65 -36 168 -99 155 -101 413 47 244 139 246 141 268 188
14 31 16 73 16 280 0 244 -4 275 -38 314 -20 22 -210 137 -233 141 -8 1 -17 6
-20 10 -5 8 -37 27 -155 92 -64 36 -106 35 -183 -6z m120 -405 c12 -7 24 -15
27 -18 3 -3 23 -15 45 -26 l40 -22 2 -68 c1 -38 0 -76 -3 -84 -2 -9 -25 -27
-51 -40 -26 -14 -54 -31 -61 -37 -10 -10 -23 -7 -65 15 -81 43 -107 63 -100
75 3 5 5 35 4 66 0 31 3 62 8 69 6 11 113 77 129 81 1 1 12 -5 25 -11z"/>
<path d="M4695 3200 c-11 -4 -40 -15 -66 -24 -71 -25 -153 -114 -160 -173 -1
-5 -5 -15 -10 -24 -4 -9 -9 -43 -10 -75 -5 -171 31 -229 273 -447 104 -93 151
-173 138 -231 -4 -19 -5 -37 -2 -40 2 -3 -2 -16 -10 -29 -21 -31 -76 -35 -110
-8 -26 21 -47 79 -53 146 -1 22 -3 44 -4 48 -1 5 -18 6 -38 2 -21 -3 -56 -8
-78 -11 -37 -6 -68 -11 -105 -18 -15 -3 -16 -27 -6 -94 32 -208 147 -305 358
-304 205 2 338 149 321 355 -11 148 -64 224 -309 442 -66 59 -108 125 -108
170 0 56 16 95 42 108 65 33 109 -18 111 -129 l1 -40 38 3 c20 2 49 4 64 6 16
1 28 4 28 7 0 3 15 5 32 6 86 3 81 -1 74 52 -15 122 -38 181 -91 234 -50 51
-108 71 -210 73 -49 2 -99 -1 -110 -5z"/>
<path d="M1394 3188 c-2 -3 -5 -42 -5 -85 -1 -133 -12 -119 95 -118 l93 1 -1
-523 c-1 -341 2 -524 9 -526 6 -2 69 -3 140 -3 l130 1 0 520 c0 286 3 523 8
526 4 3 46 5 92 4 47 0 86 1 86 4 1 4 2 50 3 104 1 91 0 97 -19 97 -195 5
-628 3 -631 -2z"/>
<path d="M2137 3192 c-11 -2 -17 -13 -18 -30 0 -36 0 -1159 0 -1197 l1 -30
138 0 137 0 0 278 c0 270 1 278 20 282 54 13 63 0 90 -117 23 -101 90 -372 99
-403 l12 -39 138 -1 c76 0 139 2 140 5 2 3 -10 50 -26 105 -16 55 -31 108 -33
118 -2 10 -27 100 -56 199 -51 181 -52 192 -17 197 12 2 58 51 58 61 0 6 4 10
9 10 13 0 42 90 46 143 2 23 5 44 5 47 7 24 -4 115 -21 178 -12 44 -81 132
-104 132 -7 0 -15 4 -17 10 -5 14 -115 41 -198 47 -87 6 -378 10 -403 5z m418
-203 c17 -8 38 -30 48 -51 19 -38 26 -137 13 -173 -21 -58 -41 -85 -70 -94
-45 -15 -146 -19 -147 -6 -3 21 -5 330 -3 336 5 11 130 2 159 -12z"/>
<path d="M3062 3192 l-52 -3 2 -627 3 -627 270 -1 c149 0 276 2 283 4 8 3 12
31 12 96 l0 92 -145 -2 -145 -1 0 188 0 188 78 0 c42 -1 91 -1 109 0 l32 1 -1
95 0 95 -109 0 -110 0 3 156 3 157 140 1 140 1 0 93 1 92 -31 1 c-186 3 -441
3 -483 1z"/>
<path d="M3919 3192 l-77 -3 -6 -43 c-9 -59 -16 -94 -27 -144 -5 -23 -12 -59
-15 -80 -3 -20 -7 -43 -10 -51 -2 -8 -7 -30 -10 -50 -3 -20 -7 -46 -10 -58 -2
-13 -6 -35 -9 -50 -3 -16 -10 -50 -15 -78 -5 -27 -12 -62 -14 -77 -3 -15 -12
-64 -21 -108 -9 -44 -18 -93 -20 -108 -2 -15 -4 -27 -5 -27 -1 0 -3 -9 -5 -20
-1 -11 -6 -36 -10 -55 -4 -19 -8 -44 -10 -55 -2 -11 -6 -31 -9 -45 -4 -14 -8
-41 -11 -60 -3 -19 -7 -44 -9 -55 -16 -72 -18 -85 -10 -86 38 -6 247 -3 250 3
7 11 14 46 20 93 5 44 12 80 14 80 1 0 4 18 6 40 3 21 7 41 10 44 7 8 54 7 54
0 0 -4 14 -4 30 1 19 5 30 5 30 -1 0 -6 7 -6 19 0 26 15 51 -7 57 -49 7 -49
12 -82 17 -105 2 -11 7 -40 11 -65 l7 -46 125 1 126 0 -6 40 c-3 22 -8 52 -11
68 -13 69 -16 84 -21 117 -3 19 -7 42 -10 51 -2 9 -7 32 -9 50 -3 19 -7 45
-10 59 -4 14 -8 39 -11 55 -2 17 -7 41 -10 55 -3 14 -8 36 -10 50 -5 28 -41
220 -49 263 -8 43 -15 80 -20 112 -3 17 -7 41 -10 55 -3 14 -7 36 -10 50 -3
14 -11 58 -19 98 -7 39 -11 72 -8 72 3 0 1 5 -5 11 -6 6 -9 18 -6 25 3 8 -2
16 -10 20 -18 7 -137 10 -238 6z m95 -407 c4 -22 9 -60 12 -85 2 -25 7 -63 11
-85 11 -69 25 -185 27 -224 1 -24 -2 -25 -51 -24 -29 0 -58 1 -64 2 -9 1 -7
55 6 120 2 9 6 44 10 76 4 33 9 68 11 79 2 10 6 43 10 74 3 30 8 63 9 71 2 9
4 22 4 30 2 24 9 8 15 -34z"/>
<path d="M5248 3190 l-23 -6 1 -489 c0 -472 1 -493 22 -560 38 -125 122 -195
252 -210 147 -18 265 0 335 49 39 27 65 54 65 66 0 6 4 10 8 10 5 0 19 33 32
73 23 71 24 80 28 570 l3 497 -25 1 c-14 0 -55 0 -91 0 -36 0 -87 0 -113 0
l-49 -1 0 -479 c0 -519 -3 -559 -49 -580 -41 -18 -83 -13 -109 14 -14 13 -26
32 -27 42 0 10 -2 32 -4 48 -7 68 -8 505 -2 505 4 0 5 6 2 13 -9 23 -10 227
-1 227 5 0 5 5 1 11 -3 6 -6 51 -5 100 2 73 -1 90 -14 95 -20 8 -207 11 -237
4z"/>
<path d="M6173 3192 l-63 -3 0 -627 0 -628 138 1 137 0 1 265 c1 146 2 273 3
282 1 13 10 17 40 15 l39 -1 23 -101 c12 -55 23 -102 24 -105 0 -3 4 -14 8
-25 3 -11 8 -31 11 -45 3 -14 20 -83 38 -155 l33 -130 140 0 c157 1 147 -6
121 85 -9 30 -18 62 -20 70 -2 8 -18 65 -36 125 -17 61 -33 119 -35 130 -3 11
-16 60 -31 110 -21 69 -24 90 -14 93 8 3 33 23 57 45 58 53 81 127 81 256 1
221 -92 317 -324 337 -81 7 -282 10 -371 6z m372 -203 c43 -20 68 -78 67 -153
-3 -98 -19 -137 -67 -160 -33 -16 -132 -25 -150 -14 -8 5 -13 293 -6 339 2 12
126 2 156 -12z"/>
<path d="M7058 3192 l-56 -3 1 -627 2 -627 273 0 c150 0 278 2 283 6 6 3 9 44
7 94 l-3 89 -140 0 c-142 0 -162 5 -145 37 5 9 7 19 4 21 -7 8 -7 295 1 307 3
6 38 10 78 10 40 0 86 0 103 0 l32 1 0 95 0 95 -104 0 c-63 0 -105 4 -110 11
-6 11 -7 41 -5 154 0 33 1 78 2 100 0 22 2 41 3 43 2 2 66 4 142 5 l139 2 0
94 0 93 -225 2 c-124 0 -251 0 -282 -2z"/>
<path d="M3112 1192 l3 -627 135 0 135 0 2 269 c1 148 4 270 7 273 6 6 177 5
184 -1 2 -3 5 -126 6 -273 l1 -268 138 -1 137 -1 0 628 0 628 -139 0 -139 1 0
-233 c-1 -127 -1 -242 -1 -254 -1 -22 -4 -23 -96 -23 l-95 0 -1 138 c0 75 0
190 1 254 l1 117 -141 0 -140 0 2 -627z"/>
<path d="M4009 1798 c-7 -38 -2 -921 5 -958 13 -76 17 -90 35 -132 56 -128
217 -185 439 -154 114 16 215 101 238 201 1 6 6 24 10 40 4 17 10 254 11 528
l4 498 -138 -3 -138 -3 -3 -490 c-1 -269 -3 -498 -4 -508 -4 -33 -42 -67 -78
-70 -46 -4 -72 8 -89 41 -14 26 -19 239 -21 950 l0 82 -134 0 c-131 0 -134 0
-137 -22z"/>
<path d="M4890 1192 l0 -629 118 1 117 1 2 230 c1 127 2 271 3 320 l1 90 39
-100 c22 -55 43 -107 46 -115 4 -8 8 -19 10 -25 1 -5 30 -77 64 -160 34 -82
62 -154 64 -160 1 -5 10 -26 18 -46 l16 -36 90 0 c83 1 91 3 94 21 2 17 2
1183 -1 1224 -1 10 -28 12 -113 10 l-113 -3 0 -292 c0 -160 -3 -289 -6 -287
-4 2 -25 50 -49 106 -23 57 -47 109 -52 116 -6 6 -7 12 -3 12 4 0 1 10 -7 23
-8 12 -43 91 -78 175 l-64 152 -98 0 -98 0 0 -628z"/>
<path d="M5647 1812 c-2 -6 -1 -77 2 -174 1 -26 1 -26 79 -26 42 0 84 0 92 -1
14 -1 16 -59 15 -513 0 -282 1 -518 2 -524 2 -6 53 -10 141 -10 l137 1 0 515
c0 283 3 520 7 525 3 6 39 9 80 8 109 -2 103 -8 103 107 l0 100 -327 -1 c-180
0 -329 -3 -331 -7z"/>
<path d="M3700 365 c-21 -25 -8 -50 28 -53 17 -2 32 0 33 5 0 4 2 16 4 26 2 9
-5 22 -15 27 -25 14 -35 13 -50 -5z"/>
<path d="M4019 358 c-5 -16 -3 -327 3 -339 4 -9 17 -15 30 -13 13 1 26 3 31 3
4 1 7 39 7 86 0 71 3 88 20 105 19 19 40 18 66 -2 7 -5 12 -42 12 -94 -1 -46
2 -88 6 -91 3 -4 20 -7 36 -8 l30 -1 0 97 c0 54 -4 109 -10 124 -20 52 -114
63 -147 18 -15 -20 -16 -16 -14 65 l1 52 -35 0 c-19 0 -35 -1 -36 -2z"/>
<path d="M4437 353 c-9 -16 -6 -228 5 -263 22 -76 149 -114 221 -66 52 35 63
70 61 204 -1 64 -2 120 -3 125 0 4 -16 7 -35 7 l-34 0 -4 -131 c-3 -116 -5
-132 -22 -145 -27 -19 -69 -18 -96 4 -21 17 -22 27 -24 143 l-1 124 -32 3
c-17 2 -33 -1 -36 -5z"/>
<path d="M5088 348 c-2 -7 -4 -84 -3 -171 1 -168 4 -178 49 -170 20 4 24 11
24 44 1 21 4 43 7 49 3 5 2 10 -4 10 -9 0 -7 37 4 68 2 6 0 12 -6 12 -6 0 -7
6 -1 17 6 9 6 29 1 45 -10 35 -10 31 1 67 6 23 5 31 -7 35 -26 10 -61 7 -65
-6z"/>
<path d="M5799 348 c-2 -38 1 -331 3 -333 2 -1 13 -5 24 -9 32 -10 52 15 48
58 -8 64 16 56 68 -23 23 -34 28 -36 92 -32 11 1 2 20 -27 64 -23 34 -45 64
-49 65 -16 7 -7 28 25 62 64 70 64 70 20 70 -40 0 -60 -13 -97 -64 -10 -14
-23 -26 -27 -26 -5 0 -7 41 -6 90 l2 90 -37 0 c-23 0 -38 -5 -39 -12z"/>
<path d="M3841 327 c-6 -6 -7 -16 -1 -28 11 -19 -2 -35 -20 -24 -5 3 -11 1
-11 -4 -1 -6 -2 -17 -3 -23 -3 -17 14 -39 24 -33 4 3 10 -9 12 -25 3 -17 2
-30 -2 -30 -3 0 -5 -12 -4 -27 6 -70 13 -96 26 -110 17 -17 78 -24 94 -12 12
10 6 62 -6 54 -5 -3 -14 -3 -22 0 -20 8 -19 151 1 147 19 -4 40 16 37 36 -2
10 -13 18 -29 20 -23 3 -26 7 -23 33 2 16 -2 30 -8 30 -6 1 -21 3 -33 4 -12 1
-26 -2 -32 -8z"/>
<path d="M4896 263 c-14 -7 -26 -19 -26 -26 0 -8 -4 -7 -9 3 -6 8 -7 18 -5 22
3 4 -12 8 -33 8 l-39 0 1 -127 c0 -137 3 -144 51 -135 21 4 22 9 22 88 -1 94
9 114 54 114 37 0 43 -17 42 -119 0 -72 2 -81 18 -82 10 -1 24 -2 31 -3 6 -1
15 3 20 9 10 14 6 185 -5 211 -20 43 -77 60 -122 37z"/>
<path d="M5291 265 c-125 -42 -104 -244 27 -260 81 -10 139 36 147 118 11 104
-77 176 -174 142z m79 -65 c25 -25 27 -95 3 -122 -54 -60 -119 39 -75 115 19
32 44 35 72 7z"/>
<path d="M5593 268 c-36 -9 -82 -59 -84 -91 -7 -108 30 -167 111 -173 67 -5
130 37 130 88 0 22 -53 15 -78 -10 -27 -27 -46 -28 -72 -2 -40 40 -15 140 35
140 8 0 25 -11 37 -25 35 -41 87 -30 73 15 -15 46 -89 75 -152 58z"/>
<path d="M3265 253 c4 -10 8 -25 9 -33 1 -8 8 -35 15 -60 7 -25 15 -56 18 -69
2 -13 10 -38 17 -56 12 -27 18 -31 45 -29 37 2 44 7 48 32 1 9 11 44 22 77 18
57 19 59 26 30 4 -16 9 -37 12 -45 4 -8 8 -26 10 -39 7 -43 20 -55 57 -56 35
0 39 4 51 60 8 34 27 104 35 125 4 14 11 37 14 53 6 25 4 27 -29 27 -36 0 -40
-4 -49 -50 -3 -14 -11 -47 -17 -75 -12 -49 -12 -50 -21 -20 -4 17 -10 41 -13
55 -16 80 -19 85 -60 85 l-38 0 -20 -85 -20 -85 -13 45 c-8 25 -16 60 -19 78
-6 46 -12 52 -52 52 -30 0 -34 -3 -28 -17z"/>
<path d="M3690 141 l0 -129 30 -4 c17 -3 34 0 38 6 7 12 11 223 4 244 -2 6
-19 12 -38 12 l-34 0 0 -129z"/>
</g>
</svg>
